<?xml version="1.0" encoding="utf-8"?>
<!-- Generator: Adobe Illustrator 18.1.1, SVG Export Plug-In . SVG Version: 6.00 Build 0)  -->
<svg version="1.1" id="Layer_1" xmlns="http://www.w3.org/2000/svg" xmlns:xlink="http://www.w3.org/1999/xlink" x="0px" y="0px"
	 viewBox="0 0 800 800" enable-background="new 0 0 800 800" xml:space="preserve">
<g>
	<path fill="#61525B" d="M18.4,18.7v763.1h763.1V18.7H18.4z M752.2,48v704.5H47.7V48H752.2z"/>
	<path fill="#61525B" d="M557.1,367.3l-4.5-3.6c-5.9-4.7-35.9,0.3-44.1-7c-5.7-5.3-6.5-14.8-8.3-27.7c-3.2-25-5.2-26.3-9.2-34.7
		c-14.1-30-52.4-52.6-78.8-55.6H341c-56.1,0-101.9,45.9-101.9,102v119c0,56,45.8,101.8,101.9,101.8h117.2
		c56,0,101.6-45.9,101.9-101.8l0.7-82.4l-1-4.5L557.1,367.3z M342.3,322.1h56.5c10.8,0,19.5,8.8,19.5,19.4
		c0,10.7-8.7,19.5-19.5,19.5h-56.5c-10.8,0-19.5-8.8-19.5-19.5C322.8,330.9,331.5,322.1,342.3,322.1z M457.1,477.7H342.3
		c-10.8,0-19.5-8.8-19.5-19.4c0-10.7,8.7-19.4,19.5-19.4h114.9c10.7,0,19.4,8.8,19.4,19.4C476.6,468.9,467.9,477.7,457.1,477.7z"/>
</g>
</svg>
