<?xml version="1.0" encoding="utf-8"?>
<!-- Generator: Adobe Illustrator 18.1.1, SVG Export Plug-In . SVG Version: 6.00 Build 0)  -->
<svg version="1.1" id="Layer_1" xmlns="http://www.w3.org/2000/svg" xmlns:xlink="http://www.w3.org/1999/xlink" x="0px" y="0px"
	 viewBox="0 0 800 800" enable-background="new 0 0 800 800" xml:space="preserve">
<g>
	<path fill="#61525B" d="M20.7,17.3v763.1h763.1V17.3H20.7z M754.5,46.6v704.5H50V46.6H754.5z"/>
</g>
<g>
	<g>
		<path fill="#61525B" d="M370.9,430.6c20.9,17.4,47.9,12.1,63.9,0c32.1-24.3,191.9-160,191.9-160c0-32.2-30.1-32.5-30.1-32.5H206.8
			c-30.2,0-29,32-29,32S345.5,409.4,370.9,430.6z M595.8,526.6l-90-103.7c0,0-41.3,35.5-55.1,47.3c-32.2,27.6-63.2,26.8-97.8-1
			c-14.1-11.3-54.8-47-54.8-47l-88.6,104L268.7,397l-91.5-78.5v209c0,32.2,30.1,32.2,30.1,32.2h387.9c29.1,0,32.2-31.1,32.2-31.1
			v-210l-88.8,76.2L595.8,526.6z"/>
	</g>
</g>
</svg>
