<?xml version="1.0" encoding="utf-8"?>
<!-- Generator: Adobe Illustrator 18.1.1, SVG Export Plug-In . SVG Version: 6.00 Build 0)  -->
<svg version="1.1" id="Layer_1" xmlns="http://www.w3.org/2000/svg" xmlns:xlink="http://www.w3.org/1999/xlink" x="0px" y="0px"
	 viewBox="0 0 800 800" enable-background="new 0 0 800 800" xml:space="preserve">
<g>
	<path fill="#61525B" d="M18.9,16.7v763.1H782V16.7H18.9z M752.7,46v704.5H48.2V46H752.7z"/>
</g>
<g>
	<path fill-rule="evenodd" clip-rule="evenodd" fill="#61525B" d="M307.6,565.5h-74.3v-223h74.3V565.5z M270.4,305.3
		c-37.2,0-37.2-13.7-37.2-35.3c0-20.4,0-39,37.2-39s36.7,15,37.2,37.2C307.6,289.8,307.6,305.3,270.4,305.3z M567.7,565.5h-74.3V454
		c0-30.3-6.1-60.3-33.3-60.3c-20.7,0-33.1,14-38.5,27.4c-2,4.8-2.5,11.6-2.5,18.3v126h-74.5c0,0,1-201.9,0-223h74.3l0.1,29.3
		c10-15.4,27.8-37.3,67.6-37.3c49.4,0,80.9,31.6,80.9,100.9V565.5z"/>
	<path fill-rule="evenodd" clip-rule="evenodd" fill="#61525B" d="M419.2,372.5v-0.8c-0.2,0.3-0.3,0.5-0.5,0.8H419.2z"/>
</g>
</svg>
