<?xml version="1.0" encoding="utf-8"?>
<!-- Generator: Adobe Illustrator 18.1.1, SVG Export Plug-In . SVG Version: 6.00 Build 0)  -->
<svg version="1.1" id="Layer_1" xmlns="http://www.w3.org/2000/svg" xmlns:xlink="http://www.w3.org/1999/xlink" x="0px" y="0px"
	 viewBox="350 350 100 100" enable-background="new 350 350 100 100" xml:space="preserve">
<g>
	<g>
		<g>
			<path fill="#81757C" d="M402.6,379.1c0.1,0.3,0.2,0.6,0.3,0.9c0.3,1.1,0.5,2.4,0.6,3.9c0.2,0,0.7,0,0.7,0v-10h-0.6
				c0,0,0,1.7,0,2.4l0,0c0,0,0,0,0,0v0c0,0,0,0,0,0v0c0,0,0,0,0,0c0,0,0,0,0,0l0,0c0,0,0,0,0,0s0,0,0,0l0,0c0,0,0,0,0,0h0
				c0,0,0,0,0,0h0c0,0,0,0,0,0c0,0,0,0,0,0h0h0c0,0,0,0,0,0c0,0,0,0,0,0s0,0,0,0l0,0c0,0,0,0,0,0c0,0,0,0,0,0c0,0,0,0,0,0
				c0,0,0,0,0,0c0,0,0,0,0,0l0,0c0,0,0,0,0,0l0,0c-0.2-0.3-0.4-0.6-0.7-0.8c-0.4-0.4-0.8-0.7-1.4-1c-0.6-0.3-1.3-0.5-2-0.5v0.7
				c0.2,0.1,0.4,0.2,0.6,0.3c0.1,0,0.1,0.1,0.2,0.1c0.4,0.2,0.7,0.5,1,0.9c0,0,0,0,0,0c0.1,0.1,0.1,0.2,0.2,0.2
				c0.2,0.2,0.3,0.4,0.4,0.6c0,0,0.1,0.1,0.1,0.1c0.1,0.2,0.2,0.4,0.4,0.6c0,0.1,0.1,0.2,0.1,0.2c0.1,0.3,0.3,0.6,0.4,0.9
				C402.4,378.7,402.5,378.9,402.6,379.1z"/>
			<path fill="#81757C" d="M394.2,376v-1.6c-0.4,0.2-0.8,0.4-1.2,0.7c-1.7,1.3-2.6,3.6-1.9,5.9c0.3,1,0.8,1.8,1.5,2.5
				c0.5,0.5,1.1,1,1.7,1.4c0.2,0.1,0.3,0.2,0.5,0.3c0.1,0.1,0.3,0.2,0.4,0.3c1,0.6,2,1.3,3,1.9c0.3,0.2,0.6,0.4,0.9,0.6
				c0.6,0.4,1.1,0.8,1.7,1.2c0.9,0.7,1.7,1.3,2.4,2.1c1.1,1.1,1.9,2.3,2.4,3.8c0.8,2.5,0.9,5.2-0.1,7.4h1.8c0.3,0,0.5,0,0.7-0.1
				c0.6-1.1,1.1-2.4,1.2-3.6c0.3-2.7-0.4-5.6-2-7.7c-0.4-0.5-0.8-1-1.3-1.5c-1.4-1.4-3.1-2.6-4.8-3.6c-0.6-0.4-1.3-0.7-2-1.1
				c-0.3-0.2-0.6-0.3-0.9-0.5l0,0c-1-0.6-2-1.2-2.8-1.9c-0.1-0.1-0.2-0.2-0.3-0.3l0,0c0,0,0,0,0,0c-0.3-0.3-0.6-0.6-0.8-1
				c-0.8-1.1-1.1-2.4-0.6-3.9C393.7,376.8,393.9,376.3,394.2,376z"/>
			<path fill="#81757C" d="M403.6,404.7c-1.1,0.9-2.6,1.4-4.6,1.4c-0.9,0-1.7-0.1-2.4-0.3c0,0-0.1,0-0.1,0c-0.3-0.1-0.5-0.2-0.7-0.3
				c0,0-0.1,0-0.1-0.1c-0.1-0.1-0.2-0.1-0.3-0.2c-0.1,0-0.2-0.1-0.2-0.1c-0.1-0.1-0.2-0.1-0.3-0.2c-0.1-0.1-0.3-0.2-0.4-0.3
				c0,0-0.1-0.1-0.1-0.1c-0.1,0-0.1-0.1-0.2-0.1c-0.3-0.2-0.5-0.4-0.7-0.6c0,0-0.1-0.1-0.1-0.1l0,0l0,0c-0.1-0.1-0.2-0.3-0.3-0.4
				c-0.1-0.1-0.2-0.2-0.2-0.3c-0.2-0.3-0.4-0.5-0.6-0.8c-0.5-0.8-0.8-1.6-1.2-2.5c-0.4-1.2-0.7-3.7-0.9-6.4c0-0.4-0.1-0.7-0.1-1.1
				c0-0.5-0.1-1-0.1-1.5c0-0.2,0-0.5,0-0.7c-0.2,0-1.2,0-1.2,0v16.4h0.6c0,0,0-0.8,0-1.8c0-0.8,0-1.7,0-2.1c0,0,0,0,0-0.1v0
				c0,0,0,0,0,0c0,0,0,0,0,0c0,0,0,0,0,0l0,0c0,0,0,0,0,0l0,0l0,0l0,0h0h0c0,0,0,0,0,0c0,0,0,0,0,0h0c0,0,0,0,0,0s0,0,0,0l0,0
				c0,0,0,0,0,0s0,0,0,0h0c0,0,0,0,0,0h0c0,0,0,0,0,0l0,0c0,0,0,0,0,0c0,0,0,0,0,0c0,0,0,0,0,0c0,0,0,0,0,0l0,0c0,0,0,0,0,0l0,0
				c0,0,0,0,0,0c0.2,0.3,0.3,0.5,0.5,0.7c0.1,0.1,0.2,0.2,0.3,0.3c0.1,0.1,0.2,0.2,0.3,0.3l0,0l0,0c0.1,0.1,0.2,0.2,0.3,0.3
				c0.2,0.2,0.5,0.4,0.7,0.6c1.8,1.3,4.4,2.1,7.1,2.1c2.1,0,4.9-0.5,6.8-2.1L403.6,404.7L403.6,404.7z"/>
			<path fill="#81757C" d="M410.7,395c0,0.2,0,0.4,0,0.6c0,1.1-0.1,2-0.1,2.8c0,0.3-0.1,0.5-0.1,0.7c0,0.3-0.1,0.5-0.1,0.8
				c0,0,0,0,0,0.1c0,0.1,0,0.2-0.1,0.3c0,0,0,0.1,0,0.1c0,0.1-0.1,0.2-0.1,0.3c0,0.1-0.1,0.2-0.1,0.3c0,0.1-0.1,0.1-0.1,0.2
				c0,0.1-0.1,0.2-0.1,0.3c0,0.1-0.1,0.2-0.1,0.3c0,0-0.1,0.1-0.1,0.1c-0.2,0.4-0.5,0.6-0.8,0.8c-0.1,0-0.1,0.1-0.2,0.1
				c0,0-0.1,0-0.1,0.1c-0.1,0.1-0.2,0.1-0.3,0.1c-0.3,0.1-0.7,0.2-1.2,0.2c-0.2,0.2-0.3,0.4-0.5,0.6h1.1h3.5c0,0,0-12.3,0-12.6
				c-0.2,0-0.5,0-0.7,0C410.7,392.6,410.7,393.9,410.7,395z"/>
			<path fill="#81757C" d="M407.1,403.2c-0.4,0-1.2,0-2.3,0c-0.3,0-0.7,0-1.1,0c-2.6,0-5.8,0-5.8,0v-14.8c-0.5-0.3-1.1-0.7-1.6-1
				c-0.5-0.3-1-0.6-1.4-0.9c0,7,0,14.3,0,15c0,0.9-0.3,1.3-1.2,1.5c0.2,0.2,0.4,0.4,0.6,0.6c0.1,0.1,0.2,0.1,0.3,0.2h8.6h1.2h2.3
				C406.9,403.6,407,403.4,407.1,403.2C407.2,403.2,407.1,403.2,407.1,403.2z"/>
			<path fill="#81757C" d="M388.8,370.4c0,0,0,0.5,0,0.6c3.4,0,5,0.3,5.7,0.8c0,0,0.1,0.1,0.1,0.1c0,0,0.1,0.1,0.1,0.1
				c0.1,0.1,0.1,0.2,0.2,0.2c0,0,0,0,0,0c0.1,0.3,0.2,0.6,0.2,0.9c0,0,0,0,0,0c0,0.2,0,0.5,0,0.9c0,0.3,0,0.6,0,1c0,0.4,0,0.7,0,1.2
				c0,1.2,0,2.8,0,4.5c0.2,0.3,0.5,0.6,0.8,0.9c0.6,0.5,1.4,1,2.2,1.5V380v-0.9c0.2,0,0.5,0,0.9,0c0.7,0,1.7,0,2.8,0
				c-0.1-0.2-0.2-0.4-0.3-0.6c-0.9,0-1.8,0-2.5,0c-0.4,0-0.7,0-0.9,0v-0.9v-2.3v-0.9c-0.1,0-0.2,0-0.3,0c0.1,0,0.2,0,0.3,0v-0.6V373
				v-2h8.2c1.2,0,2.1,0,2.8,0.4c0,0,0,0,0.1,0c0.1,0.1,0.3,0.2,0.4,0.3c0.3,0.3,0.5,0.6,0.6,1.1c0,0,0,0.1,0,0.1
				c0.1,0.2,0.1,0.4,0.2,0.6c0.1,0.2,0.1,0.4,0.1,0.7c0,0,0,0,0,0.1c0,0.1,0,0.3,0.1,0.4c0,0.3,0.1,0.6,0.1,0.9s0,0.7,0.1,1
				c0,0.3,0,0.6,0,0.9c0,0.2,0,0.4,0,0.6c0,0.2,0,0.4,0,0.7h0.7v-8.3L388.8,370.4L388.8,370.4z M397.6,374.4
				C397.6,374.4,397.6,374.4,397.6,374.4C397.7,374.4,397.7,374.4,397.6,374.4C397.7,374.4,397.6,374.4,397.6,374.4z"/>
		</g>
		<g>
			<path fill="#81757C" d="M388.8,412.1v-3.4h1.7v0.4h-1.3v1.1h1.3v0.4h-1.3v1.2h1.3v0.4L388.8,412.1L388.8,412.1z"/>
			<path fill="#81757C" d="M394,412.1v-3.4h0.4v3h1.2v0.4L394,412.1L394,412.1z"/>
			<path fill="#81757C" d="M398.9,412.1v-3.4h0.4v3h1.2v0.4L398.9,412.1L398.9,412.1z"/>
			<path fill="#81757C" d="M403.9,412.1v-3.4h1.7v0.4h-1.3v1.1h1.3v0.4h-1.3v1.2h1.3v0.4L403.9,412.1L403.9,412.1z"/>
			<path fill="#81757C" d="M410.8,412.1l-1.4-2.6v2.6h-0.4v-3.4h0.4l1.4,2.5v-2.5h0.4v3.4H410.8z"/>
		</g>
		<g>
			<path fill="#81757C" d="M388.6,418.5l0.2-0.3c0.2,0.2,0.5,0.4,0.8,0.4c0.4,0,0.6-0.3,0.6-0.6c0-0.8-1.5-0.6-1.5-1.7
				c0-0.5,0.4-0.9,1-0.9c0.4,0,0.7,0.1,0.9,0.4l-0.2,0.3c-0.2-0.2-0.4-0.3-0.7-0.3c-0.3,0-0.5,0.2-0.5,0.5c0,0.7,1.5,0.6,1.5,1.7
				c0,0.5-0.3,0.9-1,0.9C389.2,418.9,388.9,418.8,388.6,418.5z"/>
			<path fill="#81757C" d="M396.3,418.9v-2.7l-0.9,2.7h-0.2l-0.9-2.7v2.7H394v-3.4h0.6l0.8,2.5l0.8-2.5h0.5v3.4H396.3z"/>
			<path fill="#81757C" d="M400.2,418.9v-3.4h0.4v3.4H400.2z"/>
			<path fill="#81757C" d="M404.6,418.9v-3h-0.8v-0.4h2v0.4H405v3H404.6z"/>
			<path fill="#81757C" d="M410.8,418.9v-1.6h-1.4v1.6H409v-3.4h0.4v1.4h1.4v-1.4h0.4v3.4H410.8z"/>
		</g>
		<g>
			<path fill="#81757C" d="M382.9,426.2v-3.9h1c1,0,1.6,0.8,1.6,2c0,1.1-0.6,2-1.6,2H382.9z M385,424.2c0-0.9-0.4-1.5-1.1-1.5h-0.6
				v3.1h0.6C384.6,425.7,385,425.1,385,424.2z"/>
			<path fill="#81757C" d="M388.8,426.2v-3.9h2v0.4h-1.5v1.3h1.5v0.4h-1.5v1.4h1.5v0.4H388.8z"/>
			<path fill="#81757C" d="M393.9,425.7l0.3-0.4c0.2,0.2,0.5,0.4,0.9,0.4c0.5,0,0.7-0.3,0.7-0.6c0-0.9-1.8-0.7-1.8-2
				c0-0.6,0.5-1,1.1-1c0.4,0,0.8,0.2,1,0.4l-0.2,0.4c-0.2-0.2-0.5-0.4-0.8-0.4c-0.4,0-0.6,0.2-0.6,0.6c0,0.8,1.8,0.6,1.8,2
				c0,0.6-0.4,1.1-1.2,1.1C394.5,426.2,394.1,426,393.9,425.7z"/>
			<path fill="#81757C" d="M399.4,426.2v-3.9h0.5v3.9H399.4z"/>
			<path fill="#81757C" d="M403.2,424.2c0-1.2,0.6-2,1.5-2c0.6,0,0.9,0.3,1.2,0.7l-0.4,0.2c-0.2-0.3-0.4-0.5-0.8-0.5
				c-0.6,0-1,0.6-1,1.6s0.4,1.6,1,1.6c0.3,0,0.6-0.2,0.7-0.3v-0.9h-0.9v-0.4h1.4v1.5c-0.3,0.4-0.7,0.6-1.2,0.6
				C403.8,426.2,403.2,425.4,403.2,424.2z"/>
			<path fill="#81757C" d="M411.3,426.2l-1.6-3v3h-0.5v-3.9h0.5l1.6,2.9v-2.9h0.5v3.9H411.3z"/>
			<path fill="#81757C" d="M414.9,425.7l0.3-0.4c0.2,0.2,0.5,0.4,0.9,0.4c0.5,0,0.7-0.3,0.7-0.6c0-0.9-1.8-0.7-1.8-2
				c0-0.6,0.5-1,1.1-1c0.4,0,0.8,0.2,1,0.4l-0.2,0.4c-0.2-0.2-0.5-0.4-0.8-0.4c-0.4,0-0.6,0.2-0.6,0.6c0,0.8,1.8,0.6,1.8,2
				c0,0.6-0.4,1.1-1.2,1.1C415.6,426.2,415.2,426,414.9,425.7z"/>
		</g>
		<polygon fill="#81757C" points="384.4,419.1 383,419.1 383,365 417.1,365 417.1,418.9 415.8,418.9 415.8,366.4 384.4,366.4 		"/>
		<polygon fill="#81757C" points="417.1,434.5 383,434.5 383,428.5 384.4,428.5 384.4,433.1 415.8,433.1 415.8,428.5 417.1,428.5 		
			"/>
	</g>
	<path fill="#81757C" d="M351,351v97.5h97.5V351H351z M445.9,353.6v92.4h-92.4v-92.4H445.9z"/>
</g>
</svg>
